<?xml version="1.0" standalone="no"?>
<!DOCTYPE svg PUBLIC "-//W3C//DTD SVG 20010904//EN"
 "http://www.w3.org/TR/2001/REC-SVG-20010904/DTD/svg10.dtd">
<svg version="1.0" xmlns="http://www.w3.org/2000/svg"
 width="960.000000pt" height="960.000000pt" viewBox="0 0 960.000000 960.000000"
 preserveAspectRatio="xMidYMid meet">
<metadata>
Created by potrace 1.11, written by Peter Selinger 2001-2013
</metadata>
<g transform="translate(0.000000,960.000000) scale(0.100000,-0.100000)"
fill="#000000" stroke="none">
<path d="M5195 8119 c-4 -6 2 -13 13 -15 22 -6 83 -85 100 -129 6 -16 36 -133
67 -260 31 -126 59 -238 62 -248 4 -16 11 -18 50 -12 25 4 54 10 65 14 19 7
19 9 -7 40 -23 27 -27 38 -22 72 4 31 1 45 -13 59 -11 11 -28 56 -39 102 -11
46 -25 84 -30 86 -5 2 -7 11 -4 21 8 31 -31 135 -55 146 -12 5 -22 13 -22 17
0 5 -6 8 -14 8 -8 0 -18 9 -21 20 -3 11 -15 20 -26 20 -12 0 -19 7 -19 20 0
11 -2 20 -4 20 -2 0 -20 7 -39 15 -25 10 -38 11 -42 4z"/>
<path d="M4495 7930 c-3 -5 -1 -10 4 -10 6 0 11 5 11 10 0 6 -2 10 -4 10 -3 0
-8 -4 -11 -10z"/>
<path d="M4308 7904 c-4 -4 4 -15 18 -26 20 -16 27 -18 40 -7 11 9 18 9 26 1
9 -9 7 -12 -10 -12 -27 0 -27 -5 -2 -37 27 -34 60 -127 60 -168 0 -65 80 -91
104 -34 12 29 11 38 -13 93 -14 33 -29 63 -33 64 -5 2 -8 18 -8 35 0 24 -3 28
-10 17 -8 -12 -12 -12 -35 0 -15 8 -31 24 -35 36 -9 24 -43 41 -48 25 -5 -16
-23 -13 -36 5 -6 8 -15 12 -18 8z"/>
<path d="M3640 7783 c0 -6 -3 -18 -6 -27 -3 -9 -2 -16 4 -16 15 0 21 25 11 41
-5 9 -9 9 -9 2z"/>
<path d="M4928 7767 l-37 -10 6 -81 c4 -67 1 -92 -17 -146 -12 -36 -32 -82
-46 -102 -26 -40 -30 -63 -14 -73 6 -4 22 -24 35 -46 22 -34 25 -50 25 -132 0
-101 12 -127 57 -127 48 0 65 66 44 175 -4 23 -3 47 3 57 7 11 6 21 -4 33 -13
16 -15 16 -21 -2 -6 -14 -8 -12 -8 10 -1 16 3 26 9 22 9 -5 16 16 41 120 6 28
18 60 26 73 18 29 18 77 0 167 -15 78 -24 84 -99 62z"/>
<path d="M3380 7659 c0 -5 5 -9 10 -9 20 0 67 -56 88 -105 36 -81 35 -80 83
-77 24 2 46 5 48 7 1 2 -4 14 -13 27 -9 12 -16 31 -16 40 0 10 -11 24 -25 30
-14 6 -25 15 -25 20 0 4 -7 8 -15 8 -8 0 -29 15 -47 33 -31 30 -88 47 -88 26z"/>
<path d="M4020 7536 l-45 -12 -1 -94 c0 -69 -6 -111 -21 -155 -12 -33 -24 -87
-27 -120 -6 -53 -4 -64 14 -83 26 -27 54 -28 80 -2 16 16 20 33 20 91 0 70 24
178 42 190 5 3 9 8 7 10 -5 8 27 49 38 49 16 0 16 37 1 95 -14 51 -24 53 -108
31z"/>
<path d="M7490 7466 c0 -2 7 -6 15 -10 8 -3 15 -1 15 4 0 6 -7 10 -15 10 -8 0
-15 -2 -15 -4z"/>
<path d="M6630 7445 c7 -8 17 -15 22 -15 18 0 84 -74 109 -120 20 -38 24 -61
25 -144 2 -83 5 -102 20 -113 23 -17 45 -17 69 1 16 11 18 25 17 87 -3 91 -24
160 -63 198 -16 16 -29 34 -29 40 0 6 -8 11 -18 11 -11 0 -27 9 -37 20 -10 11
-21 18 -25 15 -10 -6 -80 17 -80 27 0 4 -5 8 -11 8 -8 0 -8 -5 1 -15z"/>
<path d="M5708 7423 c37 -18 95 -84 113 -128 6 -17 12 -74 13 -127 0 -53 6
-101 11 -106 22 -21 52 -22 76 -4 21 18 23 25 20 118 -3 106 -9 122 -63 150
-15 8 -29 23 -33 34 -3 11 -11 20 -17 20 -5 0 -30 14 -55 30 -24 17 -56 30
-71 30 -27 0 -27 -1 6 -17z"/>
<path d="M7560 7431 c51 -20 111 -96 133 -170 16 -49 16 -224 7 -2325 -6
-1249 -11 -2640 -13 -3091 l-2 -820 -28 -57 c-16 -32 -46 -73 -68 -91 -65 -56
-117 -67 -315 -67 -193 0 -253 13 -319 71 -59 52 -79 110 -78 218 2 102 -6
120 -54 121 -46 0 -62 -31 -61 -122 1 -86 -8 -116 -55 -180 -26 -36 -84 -76
-128 -89 -19 -5 -129 -10 -246 -11 -201 0 -214 1 -259 23 -58 27 -115 83 -134
129 -10 23 -15 70 -15 132 0 91 -2 99 -24 114 -21 15 -26 15 -57 0 l-34 -16 0
-81 c0 -108 -15 -153 -70 -210 -79 -82 -86 -84 -329 -87 -178 -3 -222 -1 -265
13 -67 22 -109 55 -142 111 -35 60 -45 115 -31 186 10 55 9 59 -13 78 -28 24
-63 26 -84 4 -19 -18 -17 -8 -20 -114 -2 -100 -21 -144 -88 -207 -74 -68 -117
-76 -352 -71 -176 4 -207 7 -246 25 -82 37 -140 112 -140 180 0 35 -24 38 -67
9 -21 -14 -43 -26 -50 -26 -6 0 -22 -17 -34 -37 -39 -63 -70 -92 -125 -118
-51 -24 -60 -25 -251 -25 -216 0 -241 6 -311 65 -18 15 -37 24 -41 19 -4 -5
-20 -26 -35 -47 -46 -62 -95 -85 -285 -134 -192 -49 -224 -50 -309 -13 -53 24
-106 71 -127 113 -19 38 -64 196 -70 248 -3 23 -8 46 -11 51 -5 8 -18 55 -59
218 -45 179 -66 252 -81 285 -8 17 -12 39 -8 48 3 9 0 27 -8 40 -8 12 -15 38
-16 57 -1 19 -6 46 -11 60 -5 14 -12 37 -15 53 -7 31 -22 36 -29 9 -3 -10 -5
-6 -6 11 0 15 4 27 10 27 12 0 6 34 -22 130 -11 35 -22 80 -24 99 -3 19 -15
45 -27 59 -13 14 -17 22 -9 17 11 -6 12 1 6 41 -4 27 -9 52 -12 57 -8 13 -33
7 -33 -8 0 -8 -9 -15 -20 -15 -14 0 -20 6 -19 23 0 24 17 69 18 50 1 -7 5 -13
10 -13 21 0 21 44 1 117 -12 43 -23 87 -24 98 -3 24 -14 62 -25 90 -5 11 -13
43 -18 70 -14 67 -43 183 -55 220 -6 17 -13 42 -15 57 -9 46 -24 20 -17 -28 4
-27 2 -44 -4 -44 -15 0 -27 119 -13 133 6 6 11 19 11 28 0 24 -27 72 -34 61
-11 -18 1 -214 14 -222 9 -5 10 -22 5 -60 -5 -36 -10 -48 -16 -39 -5 9 -9 -15
-9 -63 l0 -78 -880 0 -880 0 0 -1360 0 -1360 4800 0 4800 0 0 1360 0 1360
-839 0 -840 0 -3 -32 -3 -32 -35 32 c-31 28 -32 31 -14 32 20 0 21 7 27 122
11 203 12 198 -23 198 -27 0 -30 3 -30 33 0 32 1 32 40 29 l40 -4 1 -72 2 -71
8 90 c5 58 4 109 -3 143 -11 50 -13 52 -44 52 -18 0 -35 -6 -38 -12 -3 -7 -3
73 1 177 3 105 5 335 3 513 -2 292 -1 322 14 322 13 0 16 13 16 80 0 47 -4 80
-10 80 -6 0 -10 47 -10 120 0 68 -4 120 -9 120 -6 0 -11 -19 -13 -42 -2 -24
-1 137 1 357 2 223 7 401 12 403 13 5 12 402 -2 402 -10 0 -10 13 7 234 3 48
2 81 -4 85 -11 6 -12 67 -14 571 -1 425 -5 550 -18 550 -3 0 -18 32 -35 70
-16 38 -35 70 -42 70 -6 0 -21 14 -33 30 -12 17 -25 28 -28 26 -14 -8 -52 14
-47 26 4 9 -8 13 -42 14 -27 1 -41 -2 -33 -5z m360 -4251 c0 -16 -7 -20 -35
-20 -28 0 -35 4 -35 20 0 16 7 20 35 20 28 0 35 -4 35 -20z m-6055 -389 c-6
-5 -25 10 -25 20 0 5 6 4 14 -3 8 -7 12 -15 11 -17z m-18 -88 c-3 -10 -5 -2
-5 17 0 19 2 27 5 18 2 -10 2 -26 0 -35z m48 -22 c-10 -9 -25 14 -24 37 l1 27
13 -30 c7 -16 12 -32 10 -34z m-25 -26 c0 -8 -4 -15 -10 -15 -5 0 -10 7 -10
15 0 8 5 15 10 15 6 0 10 -7 10 -15z m27 -7 c-3 -8 -6 -5 -6 6 -1 11 2 17 5
13 3 -3 4 -12 1 -19z m34 -201 c-8 -8 -11 2 -10 39 l1 49 10 -38 c7 -28 7 -42
-1 -50z m49 -327 c0 -33 -3 -40 -20 -40 -12 0 -20 7 -20 18 0 9 -3 27 -6 40
-5 19 -2 22 20 22 24 0 26 -4 26 -40z m27 3 c-3 -10 -5 -4 -5 12 0 17 2 24 5
18 2 -7 2 -21 0 -30z m50 -108 c0 -8 -4 -15 -9 -15 -4 0 -8 -7 -8 -15 0 -17
-2 -18 -24 -9 -9 3 -16 16 -15 28 0 11 3 15 6 9 7 -18 30 -16 37 2 3 8 7 15 9
15 2 0 4 -7 4 -15z m46 -387 c-3 -15 -9 -25 -14 -22 -13 7 -11 44 2 44 5 0 7
6 3 13 -5 8 -4 9 4 2 6 -5 8 -22 5 -37z m37 -73 c0 -19 -2 -35 -4 -35 -2 0 -6
16 -8 35 -2 19 0 35 4 35 4 0 8 -16 8 -35z m56 -112 c-11 -11 -17 4 -9 23 7
18 8 18 11 1 2 -10 1 -21 -2 -24z m66 -218 c6 -29 -7 -34 -15 -6 -4 17 0 31 9
31 1 0 4 -11 6 -25z m5638 -150 c0 -28 -4 -35 -20 -35 -16 0 -20 7 -20 35 0
28 4 35 20 35 16 0 20 -7 20 -35z m100 0 c0 -24 -5 -35 -15 -35 -10 0 -15 11
-15 35 0 24 5 35 15 35 10 0 15 -11 15 -35z m-5710 -25 c0 -5 -4 -10 -10 -10
-5 0 -10 5 -10 10 0 6 5 10 10 10 6 0 10 -4 10 -10z m4610 -210 c0 -5 -5 -10
-11 -10 -5 0 -7 5 -4 10 3 6 8 10 11 10 2 0 4 -4 4 -10z m-4480 -114 c0 -3 -4
-8 -10 -11 -5 -3 -10 -1 -10 4 0 6 5 11 10 11 6 0 10 -2 10 -4z"/>
<path d="M2493 7398 c20 -18 37 -37 37 -41 0 -4 10 -21 21 -37 12 -16 28 -61
36 -101 7 -40 18 -78 24 -86 14 -16 61 -17 77 -1 14 14 16 84 2 93 -5 3 -14
24 -20 46 -6 22 -15 37 -20 34 -6 -4 -10 1 -10 10 0 21 -27 48 -39 40 -5 -3
-12 4 -16 15 -4 11 -12 20 -18 19 -14 -2 -50 11 -57 21 -3 4 -16 10 -30 14
-22 6 -20 3 13 -26z"/>
<path d="M6025 7410 c-3 -5 -1 -10 4 -10 6 0 11 5 11 10 0 6 -2 10 -4 10 -3 0
-8 -4 -11 -10z"/>
<path d="M3083 7299 c-41 -12 -43 -16 -34 -65 11 -58 -6 -166 -35 -230 -32
-70 -115 -152 -190 -189 -54 -26 -69 -28 -169 -29 -103 -1 -114 1 -176 30 -37
18 -84 48 -106 68 -22 20 -43 36 -47 36 -15 0 -4 -48 14 -65 11 -10 20 -24 20
-32 0 -7 9 -13 20 -13 11 0 20 -5 20 -12 0 -17 61 -68 90 -74 45 -10 70 -23
70 -38 0 -11 19 -16 73 -19 39 -3 83 -5 97 -5 14 0 43 -1 64 -3 27 -1 42 3 51
14 7 9 19 17 28 17 9 0 28 11 43 25 15 14 36 25 46 25 22 0 34 11 62 54 14 22
20 25 27 15 6 -10 11 -6 19 16 8 21 13 26 19 16 15 -24 22 30 31 232 5 116 12
203 19 211 21 25 -1 31 -56 15z"/>
<path d="M1448 7223 c6 -2 18 -2 25 0 6 3 1 5 -13 5 -14 0 -19 -2 -12 -5z"/>
<path d="M1494 7213 c10 -11 36 -12 36 -2 0 5 -10 9 -22 9 -12 0 -18 -3 -14
-7z"/>
<path d="M1540 7194 c0 -3 18 -22 39 -42 40 -38 74 -109 87 -187 9 -55 30 -85
59 -85 39 0 76 76 45 95 -5 3 -10 18 -10 33 -1 32 -24 67 -39 57 -6 -3 -11 -2
-11 3 0 14 -42 58 -67 71 -14 7 -20 17 -16 27 4 12 1 15 -13 12 -10 -3 -31 2
-46 9 -16 7 -28 11 -28 7z"/>
<path d="M4386 7098 c-3 -13 -10 -47 -16 -76 -14 -74 -44 -127 -106 -189 -78
-78 -146 -107 -261 -111 -200 -8 -349 85 -392 245 l-11 40 -67 10 c-38 6 -69
10 -70 9 -5 -4 -14 -1493 -18 -3351 l-6 -2170 47 -45 c25 -25 58 -69 71 -98
14 -29 28 -50 32 -47 5 2 14 25 21 50 7 25 17 48 22 51 5 3 13 17 18 30 5 13
16 24 25 24 8 0 15 6 15 13 0 7 16 20 35 27 38 15 67 40 46 40 -6 0 -11 5 -11
10 0 6 9 10 21 10 11 0 17 -4 14 -10 -8 -13 -11 -13 59 9 33 10 53 21 45 24
-11 4 -10 6 3 6 9 1 20 -3 23 -9 3 -5 26 -10 50 -10 50 0 169 -36 199 -60 60
-48 102 -89 122 -122 32 -50 64 -149 64 -198 l0 -40 54 0 c72 0 86 6 86 41 0
15 5 40 12 54 8 19 9 31 1 43 -14 24 2 62 26 62 14 0 23 9 27 25 16 62 124
138 266 186 36 12 136 5 223 -17 35 -8 118 -68 158 -113 47 -53 89 -147 94
-212 3 -32 11 -63 17 -68 11 -8 120 0 130 10 3 3 7 40 8 82 2 57 6 76 16 72 7
-2 12 4 12 15 0 11 6 20 14 20 18 0 28 40 14 58 -8 9 -8 16 -2 20 6 4 13 15
17 25 3 9 11 17 17 17 6 0 9 -4 5 -9 -11 -19 14 -20 36 -2 18 15 21 22 13 31
-8 8 -14 9 -18 1 -11 -17 -26 -13 -19 5 5 13 15 15 48 9 29 -4 47 -2 56 7 8 7
32 21 53 31 51 24 198 25 252 2 20 -8 43 -15 51 -15 19 0 87 -52 136 -104 50
-54 85 -127 100 -212 15 -77 19 -80 97 -66 l44 7 13 64 c17 86 56 165 105 214
30 30 36 42 26 48 -12 8 -4 13 16 10 10 -2 68 20 76 29 14 16 71 33 125 37
136 10 264 -34 339 -118 59 -66 107 -167 113 -240 3 -32 11 -59 17 -60 20 -2
71 2 89 7 16 5 17 54 17 855 0 559 -3 849 -10 849 -5 0 -10 -10 -11 -22 0 -18
-3 -16 -14 12 -12 32 -14 33 -15 10 -1 -23 -2 -23 -10 -5 -6 13 -9 -8 -9 -65
-1 -97 -8 -130 -26 -130 -18 0 -25 34 -25 133 0 48 -4 87 -9 87 -9 0 -21 -71
-21 -126 0 -32 -2 -34 -35 -35 -19 -1 -48 -2 -65 -3 -16 0 -35 -9 -43 -20 -8
-11 -19 -16 -26 -12 -8 5 -7 11 4 22 8 9 15 33 15 55 l0 39 -50 0 c-46 0 -50
-2 -50 -24 0 -24 -13 -28 -39 -12 -8 5 -16 3 -22 -5 -6 -11 -11 -11 -21 -1 -9
9 -9 12 4 12 10 0 16 7 15 18 -1 13 -8 17 -30 16 -28 -2 -28 -1 -25 39 2 27
-1 42 -10 45 -10 3 -12 -8 -10 -44 3 -47 2 -49 -26 -52 -18 -2 -26 0 -21 7 4
7 -8 11 -33 11 -21 0 -66 3 -99 6 l-60 7 -1 -31 c-1 -29 1 -30 24 -22 14 6 46
12 72 14 26 2 55 7 65 11 9 4 17 3 17 -3 0 -6 14 -13 30 -17 17 -4 30 -11 30
-16 0 -5 8 -9 19 -9 26 0 118 -101 144 -157 31 -68 31 -190 0 -253 -80 -161
-266 -225 -424 -145 -47 24 -129 94 -129 111 0 3 -7 12 -15 20 -8 9 -15 28
-15 44 0 20 -6 29 -21 33 -15 4 -20 11 -15 22 3 9 6 28 6 41 0 14 4 23 9 20 5
-3 12 18 16 46 10 78 25 129 35 123 5 -3 25 10 44 29 22 22 31 36 23 40 -7 2
-2 5 10 5 30 1 53 11 53 23 0 6 -16 7 -40 3 -37 -6 -40 -5 -40 17 0 24 -32 68
-50 68 -6 0 -10 9 -10 20 0 11 -4 20 -10 20 -5 0 -10 -18 -10 -40 0 -22 3 -40
8 -40 4 0 8 -18 8 -39 l2 -39 -104 3 c-100 3 -105 2 -99 -16 5 -15 2 -19 -14
-19 -12 0 -21 7 -21 15 0 8 -7 15 -15 15 -8 0 -15 9 -15 20 0 11 -8 23 -17 27
-10 3 -26 13 -35 21 -10 8 -29 13 -48 10 -20 -3 -30 0 -30 9 0 17 -15 17 -29
-1 -10 -11 -8 -17 6 -25 17 -10 16 -10 -4 -11 -12 0 -25 5 -28 10 -3 6 -15 10
-25 10 -16 0 -18 7 -16 45 2 32 -1 45 -11 45 -9 0 -13 -13 -13 -40 0 -33 -3
-40 -20 -40 -11 0 -20 4 -20 10 0 5 -18 9 -40 7 -22 -1 -40 -7 -40 -14 0 -6
-6 -14 -12 -17 -7 -2 15 -3 50 -1 183 11 332 -133 332 -320 0 -103 -71 -219
-160 -264 -53 -28 -136 -44 -184 -37 -61 9 -164 61 -197 99 -16 17 -29 28 -29
22 -1 -20 -49 129 -56 170 -3 23 0 61 7 86 7 24 13 59 13 78 1 19 7 36 14 38
6 3 12 0 12 -6 0 -18 18 -12 24 7 4 10 15 28 27 40 l20 22 -41 0 c-22 0 -40
-4 -40 -10 0 -5 7 -10 16 -10 13 0 14 -3 4 -15 -15 -18 -28 -11 -40 21 -13 34
-79 31 -81 -5 0 -13 -2 -13 -8 3 -7 17 -8 17 -23 2 -21 -20 -48 -21 -48 -1 0
8 -7 15 -15 15 -8 0 -15 -7 -15 -16 0 -27 -24 -9 -35 25 -9 32 -11 32 -52 26
-33 -5 -43 -3 -43 8 0 16 -47 40 -61 31 -6 -3 -16 0 -24 6 -8 7 -26 10 -40 8
-14 -3 -28 -2 -30 3 -3 4 -20 4 -38 -1 -51 -13 -154 -21 -138 -11 21 13 -47
20 -75 7 -13 -6 -24 -14 -24 -17 0 -4 -12 -14 -26 -24 l-27 -17 7 26 c6 23 3
26 -19 26 -14 0 -25 5 -25 10 0 6 -9 10 -20 10 -19 0 -21 -5 -18 -57 2 -40 7
-57 16 -55 10 2 10 -2 0 -18 -12 -19 -13 -19 -23 3 -9 20 -17 23 -71 22 -43 0
-65 -5 -78 -17 -18 -19 -46 -14 -46 8 0 8 9 14 20 14 17 0 20 7 20 40 l0 40
-57 -1 c-32 -1 -50 -3 -40 -6 24 -6 22 -33 -3 -33 -11 0 -20 4 -20 9 0 5 -10
11 -23 15 -20 5 -22 10 -19 51 3 28 0 45 -7 45 -6 0 -11 -15 -11 -34 0 -26 -5
-36 -19 -41 -26 -8 -130 -2 -125 7 3 4 -12 12 -33 17 -20 6 -40 7 -43 2 -3 -5
-21 -11 -41 -14 -34 -4 -37 -2 -42 23 -5 23 -10 27 -32 22 -19 -3 -23 -7 -14
-13 7 -4 16 -6 20 -3 4 2 11 -1 15 -7 4 -8 3 -9 -4 -5 -7 4 -12 3 -12 -3 0
-18 37 -31 87 -32 120 -3 193 -31 267 -105 125 -125 114 -344 -24 -453 -87
-68 -181 -86 -294 -54 -48 13 -71 27 -117 73 -32 32 -61 69 -65 84 -7 27 -34
37 -34 11 0 -8 -4 -15 -10 -15 -5 0 -10 -5 -10 -11 0 -6 7 -8 16 -5 8 3 12 2
9 -4 -7 -11 -35 -14 -35 -3 0 4 10 27 21 51 18 36 20 50 12 76 -6 18 -6 42 -1
55 11 30 -2 132 -18 138 -10 4 -13 37 -5 76 2 14 21 7 21 -8 0 -9 8 -28 17
-43 15 -23 15 -25 2 -14 -14 11 -16 9 -11 -13 5 -29 22 -44 22 -20 0 8 7 18
16 22 11 4 13 13 9 34 -4 18 -2 29 4 29 6 0 8 -7 5 -15 -4 -8 -2 -15 4 -15 5
0 12 9 15 20 3 13 -1 21 -14 25 -11 4 -17 11 -14 16 4 5 13 2 21 -6 19 -19 29
-19 48 0 8 9 35 27 58 40 24 14 41 25 38 25 -3 1 -41 3 -85 6 -44 3 -81 10
-83 15 -2 5 -21 9 -43 9 l-39 0 0 -44 c0 -41 -2 -44 -31 -50 -17 -3 -34 -6
-38 -6 -4 0 -5 18 -3 39 3 32 8 41 25 43 22 3 22 3 -2 25 -20 19 -24 31 -22
78 1 53 1 55 -24 55 l-26 0 3 -120 c3 -119 3 -120 -19 -120 -23 0 -23 2 -23
120 0 73 4 120 10 120 6 0 10 18 10 40 0 22 -5 40 -11 40 -8 0 -10 113 -7 400
3 265 1 401 -5 403 -15 5 -23 397 -8 397 14 0 16 226 2 235 -13 8 -15 885 -1
885 5 0 10 14 10 30 0 17 5 30 10 30 6 0 10 23 10 50 0 28 -4 50 -10 50 -6 0
-10 71 -10 193 0 132 -4 197 -11 204 -17 17 -17 795 -1 801 13 4 15 56 3 86
-4 10 -5 31 -3 46 3 21 8 26 23 23 20 -6 95 -111 85 -120 -9 -10 15 -33 33
-33 10 0 30 -18 47 -39 25 -34 34 -39 65 -38 27 1 42 -5 61 -25 22 -24 30 -27
79 -23 30 2 88 5 131 6 65 1 79 4 96 24 11 12 36 25 59 28 29 5 43 13 51 32 7
14 20 25 31 25 17 0 71 58 71 77 0 4 14 26 30 47 22 29 27 42 18 47 -10 7 -10
11 0 21 6 6 12 22 12 35 0 13 5 23 10 23 6 0 10 9 10 19 0 30 17 34 24 6 12
-48 22 -25 18 43 -2 37 -5 73 -7 80 -3 8 -27 12 -74 12 -65 0 -71 -2 -75 -22z
m2931 -4360 c-2 -13 -4 -3 -4 22 0 25 2 35 4 23 2 -13 2 -33 0 -45z m-2289 43
c9 -5 33 -11 52 -12 27 -3 47 -16 83 -54 160 -165 136 -402 -51 -513 -43 -24
-56 -27 -142 -27 -111 1 -160 18 -227 82 -39 37 -83 116 -83 149 0 8 -4 14
-10 14 -5 0 -10 25 -10 55 0 30 4 55 9 55 14 0 18 42 6 63 -8 14 -6 21 10 32
11 8 25 19 31 24 7 5 14 7 17 5 3 -3 8 4 12 16 9 28 63 83 74 75 5 -3 12 -1
16 5 3 5 1 10 -4 10 -6 0 -11 4 -11 8 0 5 13 7 28 4 15 -2 43 1 62 6 45 13
117 15 138 3z m-678 -31 c0 -5 -7 -10 -16 -10 -8 0 -12 5 -9 10 3 6 10 10 16
10 5 0 9 -4 9 -10z m2110 -34 c0 -3 -4 -8 -10 -11 -5 -3 -10 -1 -10 4 0 6 5
11 10 11 6 0 10 -2 10 -4z m-110 -96 c0 -11 -2 -20 -5 -20 -2 0 -9 9 -15 20
-9 16 -8 20 5 20 8 0 15 -9 15 -20z m913 -37 c4 -32 10 -140 13 -240 6 -142 4
-183 -5 -183 -9 0 -11 -20 -5 -80 5 -57 3 -80 -5 -80 -6 0 -12 -17 -12 -37 -1
-31 -3 -27 -11 22 -7 41 -7 70 1 90 15 44 14 314 -2 321 -8 3 -11 29 -10 87 1
45 2 99 3 120 0 24 5 37 14 37 9 0 15 -19 19 -57z m-1793 -50 c0 -29 -2 -29
-19 5 -10 18 -9 22 4 22 10 0 15 -9 15 -27z m887 -10 c-3 -10 -5 -4 -5 12 0
17 2 24 5 18 2 -7 2 -21 0 -30z m962 5 c0 -31 -1 -31 -10 -10 -5 13 -7 28 -3
33 10 16 14 9 13 -23z m-1848 -142 c-15 -38 -27 -26 -29 31 -1 44 0 46 10 23
l12 -25 5 35 5 35 4 -36 c1 -19 -2 -48 -7 -63z m1846 -78 c-2 -35 -3 -9 -3 57
0 66 1 94 3 63 2 -32 2 -86 0 -120z m-990 80 c-3 -7 -5 -2 -5 12 0 14 2 19 5
13 2 -7 2 -19 0 -25z m30 -20 c-3 -8 -6 -5 -6 6 -1 11 2 17 5 13 3 -3 4 -12 1
-19z m880 -85 c-2 -21 -4 -4 -4 37 0 41 2 58 4 38 2 -21 2 -55 0 -75z m-1707
16 c0 -18 -2 -19 -15 -5 -8 8 -15 17 -15 20 0 3 7 6 15 6 9 0 15 -9 15 -21z
m744 5 c3 -9 7 -25 7 -37 1 -13 4 -8 8 12 9 51 31 52 31 2 0 -37 -2 -41 -25
-41 -17 0 -25 6 -26 18 0 14 -2 14 -9 -3 -7 -15 -8 -10 -8 23 1 43 11 55 22
26z m-2494 -33 c0 -6 -4 -13 -10 -16 -5 -3 -10 1 -10 9 0 9 5 16 10 16 6 0 10
-4 10 -9z m777 -23 c-3 -7 -5 -2 -5 12 0 14 2 19 5 13 2 -7 2 -19 0 -25z m883
7 c0 -9 -9 -15 -21 -15 -18 0 -19 2 -9 15 7 8 16 15 21 15 5 0 9 -7 9 -15z
m-1568 -77 c-6 -6 -15 -8 -19 -4 -4 4 -1 11 7 16 19 12 27 3 12 -12z m860 -25
c-2 -7 -8 -13 -14 -13 -5 0 -6 6 -2 13 5 9 4 9 -5 1 -9 -9 -19 -9 -37 0 -29
13 -26 28 7 37 27 6 59 -18 51 -38z m870 -55 c-3 -10 -11 -18 -18 -18 -18 0
-20 86 -1 93 13 4 26 -45 19 -75z m818 67 c10 -12 10 -15 -4 -15 -9 0 -16 7
-16 15 0 8 2 15 4 15 2 0 9 -7 16 -15z m-1940 -66 c0 -6 -4 -7 -10 -4 -5 3
-10 11 -10 16 0 6 5 7 10 4 6 -3 10 -11 10 -16z m1750 -3 c0 -11 -19 -15 -25
-6 -3 5 1 10 9 10 9 0 16 -2 16 -4z m1080 -170 c-12 -12 -13 15 -2 94 l7 55 3
-69 c2 -39 -2 -74 -8 -80z m-2993 90 c4 -3 -13 -6 -36 -6 -23 0 -40 4 -37 9 6
9 63 7 73 -3z m2332 -3 c-6 -7 -19 -13 -29 -13 -10 0 -20 6 -23 13 -4 10 5 14
29 14 27 0 31 -3 23 -14z m658 -370 c-2 -21 -4 -4 -4 37 0 41 2 58 4 38 2 -21
2 -55 0 -75z m-3227 22 c0 -8 -4 -15 -9 -15 -5 0 -14 7 -21 15 -10 13 -9 15 9
15 12 0 21 -6 21 -15z m88 -5 c-10 -16 -10 -24 1 -41 11 -19 11 -21 -4 -15 -9
3 -21 6 -26 6 -5 0 -9 16 -9 35 0 31 3 35 25 35 23 0 24 -2 13 -20z m792 11
c0 -5 9 -11 20 -14 23 -6 27 -22 7 -30 -7 -2 -26 8 -41 24 -28 28 -28 29 -8
29 12 0 22 -4 22 -9z m800 -11 c0 -23 -10 -26 -28 -8 -18 18 -15 28 8 28 13 0
20 -7 20 -20z m1193 13 c-7 -2 -19 -2 -25 0 -7 3 -2 5 12 5 14 0 19 -2 13 -5z
m-953 -33 c0 -17 -7 -20 -40 -20 -33 0 -40 3 -40 20 0 17 7 20 40 20 33 0 40
-3 40 -20z m750 10 c13 -9 13 -11 0 -20 -22 -15 -30 -12 -30 10 0 22 8 25 30
10z m-2540 -10 c0 -5 -7 -10 -15 -10 -8 0 -15 5 -15 10 0 6 7 10 15 10 8 0 15
-4 15 -10z m1498 -12 c17 -17 15 -24 -8 -25 -14 -1 -20 4 -20 18 0 22 11 24
28 7z m1202 -8 c-19 -13 -30 -13 -30 0 0 6 10 10 23 10 18 0 19 -2 7 -10z
m-1290 -29 c0 -6 -4 -13 -10 -16 -5 -3 -10 1 -10 9 0 9 5 16 10 16 6 0 10 -4
10 -9z m197 3 c-3 -3 -12 -4 -19 -1 -8 3 -5 6 6 6 11 1 17 -2 13 -5z m-1047
-18 c0 -2 -7 -7 -16 -10 -8 -3 -12 -2 -9 4 6 10 25 14 25 6z m960 0 c0 -3 -4
-8 -10 -11 -5 -3 -10 -1 -10 4 0 6 5 11 10 11 6 0 10 -2 10 -4z m1293 -13 c-7
-2 -19 -2 -25 0 -7 3 -2 5 12 5 14 0 19 -2 13 -5z m-3405 -43 c13 0 13 -3 4
-12 -10 -10 -15 -10 -22 2 -5 8 -9 20 -9 25 0 6 3 4 6 -2 2 -7 12 -13 21 -13z
m632 -10 c0 -5 -2 -10 -4 -10 -3 0 -8 5 -11 10 -3 6 -1 10 4 10 6 0 11 -4 11
-10z m349 -17 c2 -2 -5 -3 -17 -3 -14 0 -22 6 -22 16 0 14 3 15 18 3 9 -7 19
-15 21 -16z m761 12 c0 -8 -4 -15 -9 -15 -5 0 -14 7 -21 15 -10 13 -9 15 9 15
12 0 21 -6 21 -15z m1915 5 c3 -5 2 -16 -2 -24 -6 -12 -10 -10 -20 10 -9 19
-8 24 2 24 8 0 17 -4 20 -10z m-3635 -30 c0 -5 -5 -10 -11 -10 -5 0 -7 5 -4
10 3 6 8 10 11 10 2 0 4 -4 4 -10z m748 3 c-10 -2 -28 -2 -40 0 -13 2 -5 4 17
4 22 1 32 -1 23 -4z m90 -60 c-2 -10 -12 -18 -23 -18 -11 0 -21 8 -23 18 -3
13 3 17 23 17 20 0 26 -4 23 -17z m989 -5 c-3 -8 -6 -5 -6 6 -1 11 2 17 5 13
3 -3 4 -12 1 -19z m966 -38 c3 -11 1 -20 -4 -20 -5 0 -9 9 -9 20 0 11 2 20 4
20 2 0 6 -9 9 -20z m-983 -60 c0 -22 -5 -40 -11 -40 -5 0 -8 4 -4 9 3 5 0 13
-6 17 -8 4 -7 9 2 15 10 6 11 9 2 9 -7 0 -13 5 -13 11 0 5 5 7 10 4 6 -3 10
-1 10 4 0 6 2 11 5 11 3 0 5 -18 5 -40z"/>
<path d="M5333 7057 c-41 -242 -260 -388 -497 -333 -73 17 -121 42 -170 85
l-29 26 8 -30 c4 -16 8 -38 9 -47 0 -10 4 -18 8 -18 5 0 24 -10 43 -22 36 -24
44 -43 23 -51 -7 -3 4 -6 24 -6 20 -1 40 -5 43 -11 3 -5 15 -10 26 -10 10 0
19 -7 19 -15 0 -32 88 -43 228 -29 41 5 68 13 83 27 15 14 37 20 73 21 50 2
51 2 56 36 4 31 9 35 39 38 25 3 31 6 20 13 -10 6 -10 9 -1 9 7 0 12 14 13 33
0 24 2 28 8 13 7 -18 9 -17 28 8 12 15 25 40 28 56 4 17 10 30 14 30 4 0 14
18 21 41 10 29 18 39 30 36 15 -4 17 5 16 67 -1 39 -5 77 -9 84 -5 7 -33 12
-76 12 l-67 0 -11 -63z"/>
<path d="M6295 7105 c-2 -5 -6 -32 -9 -60 -9 -71 -57 -166 -110 -218 -25 -25
-76 -61 -113 -79 -64 -31 -73 -33 -178 -33 -105 0 -113 2 -180 35 -47 23 -89
54 -127 94 -56 59 -79 63 -38 7 12 -15 22 -40 24 -57 3 -24 8 -29 30 -29 18 1
26 -4 26 -16 0 -18 30 -49 48 -49 7 0 12 -11 12 -25 0 -22 4 -25 38 -25 35 0
68 -16 101 -48 10 -10 16 -11 21 -2 6 9 13 9 28 1 24 -13 129 -14 187 -2 22 5
36 10 30 11 -5 1 19 9 55 18 48 13 68 23 75 40 5 12 13 22 18 22 4 0 22 15 40
34 18 19 41 38 52 44 13 7 26 29 34 61 8 31 18 51 27 51 8 0 14 5 14 10 0 6 7
10 17 10 15 0 15 2 -1 19 -12 13 -14 21 -6 26 16 10 50 -24 50 -50 0 -12 11
-32 25 -45 14 -13 25 -27 25 -32 0 -13 33 -47 41 -42 5 2 15 -9 24 -26 8 -16
22 -30 30 -30 8 0 15 -8 15 -19 0 -25 21 -41 62 -47 25 -4 34 -11 35 -26 1
-11 4 -22 6 -25 4 -3 106 -11 187 -14 53 -3 151 16 190 36 25 13 55 23 65 22
13 -1 27 12 43 41 13 23 28 42 34 42 14 0 35 27 53 67 9 22 19 31 29 27 15 -6
28 25 23 56 -1 8 4 56 12 107 18 120 16 125 -56 121 -56 -3 -58 -4 -61 -33 -1
-16 -7 -50 -14 -75 -50 -198 -254 -327 -455 -290 -81 15 -158 48 -195 83 -15
14 -31 27 -35 28 -16 7 -63 76 -63 91 0 9 -7 18 -15 22 -12 4 -15 24 -15 90
l0 84 -76 4 c-45 2 -78 -1 -79 -7z m135 -135 c0 -5 -7 -10 -16 -10 -8 0 -12 5
-9 10 3 6 10 10 16 10 5 0 9 -4 9 -10z"/>
<path d="M2170 7065 l-45 -12 0 -105 c0 -102 -1 -107 -39 -182 -27 -53 -55
-91 -90 -122 -59 -51 -91 -68 -172 -89 -73 -19 -112 -19 -193 0 -151 36 -249
126 -276 253 -6 28 -10 32 -39 32 -36 0 -96 -18 -96 -29 0 -3 5 -22 10 -41 10
-33 126 -486 250 -975 59 -231 151 -594 260 -1020 33 -126 91 -354 129 -505
119 -469 201 -791 228 -890 14 -52 29 -111 33 -130 30 -133 42 -179 87 -340 8
-30 19 -73 23 -95 5 -22 24 -101 44 -175 19 -74 67 -261 106 -415 39 -154 102
-401 140 -550 38 -148 89 -349 113 -445 l44 -175 29 1 c16 1 42 7 58 13 28 11
29 12 22 69 -10 77 -10 72 -1 117 4 22 9 50 10 63 1 12 7 28 13 34 7 7 12 16
12 20 0 38 174 198 214 198 8 0 22 7 30 16 14 13 16 49 17 232 0 119 3 248 8
285 4 42 3 71 -2 74 -6 3 -40 5 -77 4 -83 -3 -161 25 -222 79 -48 42 -98 127
-98 166 0 15 -6 24 -15 24 -18 0 -20 26 -2 33 7 3 14 24 15 48 2 23 6 47 10
53 8 13 13 43 14 79 1 22 4 25 15 16 10 -9 19 -6 38 15 14 15 25 37 25 49 0
16 3 18 9 9 6 -11 15 -10 44 5 41 20 50 38 13 23 -26 -9 -66 -3 -66 11 0 13
14 11 29 -3 10 -11 15 -9 27 7 14 19 13 20 -38 23 -69 4 -92 -10 -104 -61 -8
-37 -12 -42 -36 -41 -16 1 -66 2 -113 3 l-85 1 0 40 c0 40 0 40 -39 40 l-39 0
0 66 c-1 69 -7 88 -22 64 -8 -12 -10 -10 -10 8 0 12 -6 22 -12 22 -7 0 -21 14
-30 31 -15 25 -17 44 -12 100 l7 70 -26 -5 c-22 -4 -27 0 -32 25 -4 16 -4 63
0 104 5 53 4 75 -4 75 -6 0 -11 13 -11 29 0 43 -11 91 -21 91 -5 0 -9 -10 -9
-22 0 -21 -1 -21 -15 6 -8 15 -15 53 -15 82 0 41 -4 54 -15 54 -16 0 -21 43
-17 123 2 31 -1 37 -18 37 -17 0 -20 7 -20 40 0 29 -4 40 -15 40 -10 0 -15 10
-15 34 0 19 -9 62 -19 96 -11 34 -17 73 -15 87 4 19 1 24 -9 20 -10 -4 -13 1
-9 18 2 12 -1 32 -7 44 -8 13 -8 21 -2 21 6 0 8 7 5 15 -4 8 -12 15 -19 15
-19 0 -24 22 -29 144 -5 110 -10 132 -26 106 -14 -22 -19 -9 -27 60 -4 41 -9
57 -13 45 -6 -17 -7 -17 -13 6 -4 13 -7 55 -7 92 0 37 -7 84 -15 104 -8 19
-15 44 -15 55 0 11 -8 22 -19 25 -21 5 -31 31 -31 79 0 18 -7 45 -15 60 -8 16
-15 39 -15 51 0 12 -5 23 -10 25 -6 2 -13 55 -17 121 -3 64 -10 117 -15 117
-4 0 -8 -10 -8 -22 -1 -22 -1 -22 -11 -4 -9 14 -8 20 1 26 7 4 9 16 5 29 -3
12 -10 19 -15 16 -11 -7 -20 19 -13 43 3 14 -1 22 -14 26 -15 5 -17 14 -15 56
2 28 -1 56 -7 63 -6 8 -8 29 -4 51 4 28 3 36 -8 34 -9 -2 -15 13 -20 47 -4 28
-12 64 -17 82 -6 17 -8 34 -5 37 3 3 -5 20 -19 38 -19 24 -26 46 -26 81 -1 56
-21 117 -38 117 -6 0 -14 23 -17 54 -3 30 -13 66 -22 80 -16 24 -16 26 -1 26
9 0 16 7 16 15 0 10 -7 15 -17 13 -15 -3 -18 7 -21 65 -2 51 -6 67 -17 67 -11
0 -15 12 -15 40 0 22 -3 40 -8 40 -4 0 -6 18 -4 40 3 25 0 40 -7 40 -17 0 -33
49 -32 94 1 48 5 53 26 32 9 -9 21 -13 27 -10 7 5 9 0 6 -14 -4 -14 -2 -19 7
-16 8 3 19 -7 27 -23 7 -15 20 -28 28 -28 8 0 23 -8 33 -17 9 -10 24 -18 32
-18 9 0 30 -7 48 -17 18 -9 50 -15 71 -15 36 2 38 1 22 -11 -23 -17 -23 -16
108 -16 97 0 108 2 99 24 -4 11 3 15 25 15 17 0 37 6 44 13 7 6 35 23 60 36
26 13 50 32 53 42 4 10 17 27 31 38 13 10 24 26 24 35 0 9 4 16 8 16 5 0 17
17 28 38 10 20 23 40 27 43 5 3 11 40 14 82 3 43 10 77 14 77 5 0 9 7 9 15 0
8 9 19 20 25 24 13 26 44 4 111 -18 55 -27 58 -114 34z m-290 -2355 c0 -5 -2
-10 -4 -10 -3 0 -8 5 -11 10 -3 6 -1 10 4 10 6 0 11 -4 11 -10z m90 -325 c0
-8 -4 -15 -10 -15 -5 0 -10 7 -10 15 0 8 5 15 10 15 6 0 10 -7 10 -15z m270
-1035 c0 -5 -2 -10 -4 -10 -3 0 -8 5 -11 10 -3 6 -1 10 4 10 6 0 11 -4 11 -10z
m130 -485 c0 -8 -4 -15 -9 -15 -5 0 -11 7 -15 15 -3 9 0 15 9 15 8 0 15 -7 15
-15z m295 -295 c-13 -20 -25 -9 -25 22 0 32 0 32 16 10 8 -12 12 -27 9 -32z
m-67 12 c2 -7 -3 -12 -12 -12 -9 0 -16 7 -16 16 0 17 22 14 28 -4z m79 -44
c-3 -8 -6 -5 -6 6 -1 11 2 17 5 13 3 -3 4 -12 1 -19z m-60 -10 c-3 -8 -6 -5
-6 6 -1 11 2 17 5 13 3 -3 4 -12 1 -19z m30 -95 c-2 -21 -4 -4 -4 37 0 41 2
58 4 38 2 -21 2 -55 0 -75z m-30 -15 c-3 -8 -6 -5 -6 6 -1 11 2 17 5 13 3 -3
4 -12 1 -19z m58 -77 c-3 -12 -13 -21 -22 -21 -8 0 -12 5 -9 13 3 6 9 20 12
30 9 26 28 5 19 -22z m78 -98 c-7 -3 -13 -14 -13 -26 -1 -21 -1 -21 -12 -3 -8
15 -8 21 0 24 7 2 12 11 12 20 0 13 2 14 13 3 10 -11 10 -14 0 -18z m300 -652
c-5 -7 -11 3 -13 19 -1 8 -1 101 1 205 l3 190 6 -205 c3 -113 4 -207 3 -209z
m24 207 c-2 -24 -4 -5 -4 42 0 47 2 66 4 43 2 -24 2 -62 0 -85z m-367 -122 c0
-11 -19 -15 -25 -6 -3 5 1 10 9 10 9 0 16 -2 16 -4z m186 -193 c-10 -10 -19 5
-10 18 6 11 8 11 12 0 2 -7 1 -15 -2 -18z"/>
<path d="M4561 6913 c-1 -12 8 -38 20 -57 11 -19 18 -40 14 -46 -3 -5 3 -10
14 -10 29 0 27 26 -6 69 -16 19 -31 42 -35 51 -5 11 -7 9 -7 -7z"/>
<path d="M871 6734 c0 -11 3 -14 6 -6 3 7 2 16 -1 19 -3 4 -6 -2 -5 -13z"/>
<path d="M910 6584 c0 -10 5 -26 10 -34 8 -11 9 -7 4 15 -8 37 -14 45 -14 19z"/>
<path d="M920 6501 c0 -5 5 -13 10 -16 6 -3 10 -2 10 4 0 5 -4 13 -10 16 -5 3
-10 2 -10 -4z"/>
<path d="M940 6410 c0 -5 5 -10 10 -10 6 0 10 5 10 10 0 6 -4 10 -10 10 -5 0
-10 -4 -10 -10z"/>
<path d="M961 6354 c0 -11 3 -14 6 -6 3 7 2 16 -1 19 -3 4 -6 -2 -5 -13z"/>
<path d="M5524 6255 c5 -14 2 -16 -13 -12 -11 3 -22 0 -25 -7 -3 -7 -5 -7 -5
2 -1 7 -5 10 -11 7 -13 -8 10 -51 52 -95 18 -20 47 -51 63 -70 98 -113 248
-278 366 -402 20 -21 43 -38 52 -38 9 0 18 -4 22 -9 3 -5 22 -15 43 -22 20 -7
65 -25 99 -41 34 -15 68 -28 77 -28 8 0 18 -4 21 -10 7 -11 90 -50 150 -71 22
-7 47 -18 55 -24 20 -16 85 -45 99 -45 6 0 28 -9 48 -20 21 -11 43 -20 50 -20
11 0 53 -22 111 -57 21 -13 22 -16 9 -31 -13 -15 -198 -310 -349 -557 -30 -49
-69 -113 -86 -140 -35 -56 -36 -59 -82 -614 -11 -134 -22 -247 -25 -250 -3 -3
-110 21 -238 52 -464 113 -609 147 -639 147 -27 0 -175 -25 -595 -101 -89 -16
-178 -36 -197 -46 -28 -13 -41 -14 -60 -5 -27 12 -36 7 -36 -20 0 -13 10 -19
40 -24 36 -6 40 -10 40 -35 0 -15 5 -31 10 -34 6 -3 10 -1 10 6 0 8 4 8 15 -1
12 -10 13 -15 4 -20 -21 -14 7 -19 64 -13 31 3 57 10 57 14 0 5 19 9 41 9 37
0 41 2 37 23 -4 21 -1 22 58 22 35 1 73 6 86 12 13 7 40 16 61 22 33 8 37 7
37 -10 0 -16 7 -19 49 -19 42 0 51 3 56 21 5 16 12 19 31 15 17 -5 24 -2 24 9
0 8 5 15 10 15 6 0 10 -4 10 -10 0 -5 14 -10 30 -10 17 0 30 5 30 10 0 6 18
10 40 10 29 0 40 4 40 15 0 13 14 15 80 13 56 -2 80 -7 80 -15 0 -7 7 -13 16
-13 9 0 12 5 8 12 -4 7 -3 8 4 4 7 -4 12 -16 12 -26 0 -26 17 -34 35 -16 12
11 22 12 48 4 17 -5 40 -12 49 -15 10 -3 16 -8 14 -12 -2 -3 15 -7 37 -9 64
-4 77 -11 77 -38 0 -13 -4 -24 -10 -24 -5 0 -10 -4 -10 -10 0 -6 27 -10 60
-10 57 0 60 1 60 25 0 14 5 25 11 25 20 0 49 -21 49 -36 0 -10 6 -13 18 -10
26 8 111 10 119 3 3 -4 -21 -7 -55 -7 -38 0 -62 -4 -62 -11 0 -7 33 -10 98 -9
53 1 124 -3 157 -9 75 -14 98 -14 90 -1 -3 6 -2 10 3 10 5 0 13 10 17 23 4 13
8 17 12 10 11 -28 23 -11 18 27 -3 22 -1 40 4 40 14 0 24 145 26 375 2 263 1
251 20 235 12 -10 16 -7 25 16 6 15 9 44 7 63 -3 35 -4 34 -5 -6 -2 -31 -6
-43 -17 -43 -20 0 -20 66 0 86 8 8 19 32 25 53 5 21 17 44 25 51 8 7 15 21 15
31 0 11 6 19 14 19 9 0 17 15 21 40 4 24 12 40 21 40 7 0 20 15 28 34 21 51
67 98 89 92 22 -5 35 20 18 37 -18 18 -14 29 28 79 25 31 41 61 45 90 5 30 10
38 16 28 12 -19 36 2 43 38 7 35 36 111 37 95 0 -7 7 -13 15 -13 11 0 15 11
15 40 0 22 -4 40 -10 40 -5 0 -10 18 -10 40 0 33 -3 40 -20 40 -11 0 -20 6
-20 14 0 8 -11 17 -25 20 -14 4 -25 10 -25 15 0 5 -9 7 -20 4 -14 -4 -20 0
-20 11 0 9 -8 16 -20 16 -11 0 -20 7 -20 15 0 11 -11 15 -37 15 -21 0 -45 5
-53 10 -10 6 -11 10 -2 10 6 0 12 4 12 9 0 9 -33 17 -117 27 -24 4 -43 10 -43
15 0 5 -18 12 -39 15 -22 4 -42 13 -45 21 -4 8 -1 11 5 7 8 -4 9 1 4 17 -11
35 -22 44 -38 31 -8 -7 -18 -8 -22 -4 -5 4 -5 -1 -2 -10 4 -12 1 -16 -14 -15
-10 1 -19 4 -19 8 0 11 -59 29 -75 22 -10 -3 -20 6 -30 31 -14 33 -45 51 -45
26 0 -5 -6 -10 -14 -10 -8 0 -13 8 -12 17 1 11 -11 20 -36 27 -41 12 -60 26
-34 26 30 0 -1 39 -45 56 -28 12 -39 22 -40 38 0 11 -3 15 -6 9 -7 -19 -30
-16 -37 5 -15 38 -31 62 -44 62 -7 0 -17 11 -22 25 -5 14 -21 30 -36 35 -15 6
-24 16 -21 24 7 17 -4 33 -30 43 -23 9 -103 110 -103 130 0 7 -6 13 -13 13 -7
0 -23 14 -36 30 -12 17 -26 28 -31 25 -5 -3 -11 -1 -14 4 -4 5 -1 13 5 16 6 5
-2 15 -21 26 -18 11 -30 26 -28 36 2 9 -3 18 -11 21 -10 3 -12 0 -7 -13z
m1026 -825 c8 -5 11 -12 7 -17 -5 -4 -11 -3 -15 3 -4 6 -14 14 -22 17 -13 5
-13 5 0 6 8 0 22 -3 30 -9z m-634 -1774 c-3 -12 -6 -24 -6 -28 0 -5 -16 -8
-35 -8 -30 0 -35 3 -35 24 0 19 6 25 28 28 51 6 54 6 48 -16z m404 -66 c0 -5
-5 -10 -11 -10 -5 0 -7 5 -4 10 3 6 8 10 11 10 2 0 4 -4 4 -10z"/>
<path d="M1000 6187 c0 -15 -4 -27 -10 -27 -5 0 -7 -7 -4 -15 10 -24 22 -17
29 16 4 18 3 35 -4 42 -8 8 -11 4 -11 -16z"/>
<path d="M3076 6133 c-6 -14 -5 -15 5 -6 7 7 10 15 7 18 -3 3 -9 -2 -12 -12z"/>
<path d="M5120 6059 c0 -11 5 -17 10 -14 6 3 10 13 10 21 0 8 -4 14 -10 14 -5
0 -10 -9 -10 -21z"/>
<path d="M3003 6034 c-8 -17 -8 -26 -1 -31 6 -3 8 -1 4 5 -3 6 3 17 14 25 15
11 17 16 8 20 -8 2 -19 -6 -25 -19z"/>
<path d="M1040 6033 c0 -12 5 -25 10 -28 6 -4 8 -11 5 -16 -4 -5 -1 -9 5 -9
12 0 6 30 -11 60 -7 12 -8 10 -9 -7z"/>
<path d="M7313 5923 c9 -2 25 -2 35 0 9 3 1 5 -18 5 -19 0 -27 -2 -17 -5z"/>
<path d="M1077 5879 c-10 -35 -9 -39 8 -39 16 0 18 14 6 44 -7 18 -8 18 -14
-5z"/>
<path d="M2881 5874 c0 -11 3 -14 6 -6 3 7 2 16 -1 19 -3 4 -6 -2 -5 -13z"/>
<path d="M2920 5851 c0 -5 -10 -11 -22 -13 l-23 -3 22 -7 c24 -7 52 15 33 27
-5 3 -10 2 -10 -4z"/>
<path d="M4895 5800 c-10 -11 -15 -23 -12 -27 4 -3 7 -2 7 4 0 6 9 13 20 16
11 3 20 10 20 16 0 17 -15 13 -35 -9z"/>
<path d="M5345 5738 c-21 -24 -86 -95 -145 -158 -58 -63 -123 -134 -144 -157
-31 -34 -57 -49 -144 -83 -59 -23 -116 -45 -127 -50 -11 -5 -74 -30 -140 -56
-66 -25 -124 -50 -129 -55 -6 -5 38 -102 113 -249 l122 -240 20 -152 c11 -84
25 -182 30 -218 6 -36 13 -86 16 -113 3 -26 9 -50 13 -52 5 -3 36 4 69 14 34
10 61 17 61 14 0 -2 7 3 16 12 9 9 23 14 30 11 8 -3 14 -1 14 5 0 6 -10 13
-22 17 -21 5 -21 6 -3 12 17 6 15 8 -8 12 -21 4 -27 2 -23 -8 3 -8 0 -14 -8
-14 -7 0 -13 13 -13 33 0 17 -7 70 -16 117 -10 47 -17 124 -17 171 0 68 -3 88
-15 93 -8 3 -15 15 -15 26 0 11 -4 20 -10 20 -5 0 -10 11 -10 24 0 33 -37 116
-51 116 -20 0 -38 33 -39 71 0 39 -21 65 -45 55 -8 -3 -14 -2 -13 2 3 16 -15
82 -23 82 -16 0 -10 14 19 46 22 25 35 31 77 33 36 2 55 9 70 25 37 41 72 56
130 56 42 0 55 3 55 15 0 8 7 15 15 15 8 0 15 4 15 10 0 5 11 12 24 16 13 3
29 17 37 30 8 15 18 23 27 19 20 -7 62 41 62 71 0 14 6 24 15 24 8 0 31 18 51
40 21 22 45 40 56 40 11 0 18 7 18 20 0 11 4 20 8 20 5 0 17 18 27 40 17 39
20 40 66 40 53 0 81 -24 72 -61 -4 -14 0 -19 16 -19 14 0 21 -6 21 -19 0 -10
11 -26 23 -34 13 -8 35 -40 48 -71 22 -51 39 -71 39 -46 0 6 11 -1 25 -15 14
-14 32 -25 40 -25 14 0 19 -12 16 -32 0 -5 7 -8 17 -8 9 0 29 -11 43 -24 29
-27 62 -39 101 -38 18 0 28 -5 28 -13 0 -8 11 -17 25 -21 18 -4 25 -13 25 -31
0 -24 2 -25 53 -21 l52 3 19 -42 c17 -36 24 -41 50 -41 16 1 32 -4 34 -11 3
-9 7 -9 18 0 8 6 14 16 14 21 0 5 12 19 27 32 15 13 24 29 21 37 -3 8 -70 43
-149 78 -79 35 -187 84 -240 108 -53 23 -100 43 -105 43 -20 0 -235 230 -349
373 -25 31 -50 57 -54 57 -5 0 -26 -19 -46 -42z"/>
<path d="M1116 5755 c4 -8 8 -15 10 -15 2 0 4 7 4 15 0 8 -4 15 -10 15 -5 0
-7 -7 -4 -15z"/>
<path d="M2840 5745 c-14 -16 -10 -18 14 -9 9 3 16 10 16 15 0 14 -16 11 -30
-6z"/>
<path d="M1126 5702 c-4 -13 -5 -26 -2 -29 10 -11 18 4 14 29 l-4 23 -8 -23z"/>
<path d="M4800 5701 c0 -5 -10 -11 -22 -13 -12 -2 -23 -9 -26 -15 -6 -21 21
-14 53 12 23 19 26 25 13 25 -10 0 -18 -4 -18 -9z"/>
<path d="M4640 5649 c0 -18 4 -20 23 -14 12 4 33 8 46 9 14 2 27 8 29 14 2 8
-13 12 -47 12 -45 0 -51 -2 -51 -21z"/>
<path d="M2675 5640 c4 -6 11 -8 16 -5 14 9 11 15 -7 15 -8 0 -12 -5 -9 -10z"/>
<path d="M4488 5601 c8 -4 13 -12 12 -17 0 -5 6 -10 14 -12 9 -2 16 1 16 7 0
6 -6 11 -12 11 -9 0 -8 4 2 10 12 7 8 10 -15 10 -20 0 -26 -3 -17 -9z"/>
<path d="M4568 5593 c6 -2 18 -2 25 0 6 3 1 5 -13 5 -14 0 -19 -2 -12 -5z"/>
<path d="M6220 5582 c0 -5 22 -8 50 -8 28 0 45 3 37 8 -16 10 -87 10 -87 0z"/>
<path d="M1160 5556 c0 -14 5 -28 10 -31 6 -3 10 5 10 19 0 14 -4 28 -10 31
-6 3 -10 -5 -10 -19z"/>
<path d="M4440 5550 c-12 -8 -9 -10 13 -10 15 0 27 5 27 10 0 13 -20 13 -40 0z"/>
<path d="M4310 5511 c0 -10 30 -24 37 -17 3 3 2 9 -2 15 -8 13 -35 15 -35 2z"/>
<path d="M2455 5472 c-11 -2 -24 -9 -30 -14 -7 -7 -1 -8 20 -3 44 10 53 26 10
17z"/>
<path d="M2965 5379 c-100 -74 -160 -117 -239 -171 -10 -7 13 -38 113 -144 36
-40 89 -98 116 -130 28 -32 67 -77 87 -99 20 -23 43 -54 49 -71 11 -25 13 -26
16 -9 2 11 -1 63 -5 115 -7 81 -10 91 -19 70 -10 -22 -12 -23 -18 -7 -4 10
-13 16 -21 13 -8 -3 -17 7 -24 27 -13 40 -54 87 -75 87 -8 0 -15 4 -15 9 0 6
9 8 19 6 14 -3 18 1 14 11 -3 8 -16 14 -28 14 -13 0 -26 4 -29 8 -8 14 25 54
40 48 8 -3 14 1 14 9 0 8 9 15 19 15 11 0 23 9 26 20 3 11 17 23 30 26 14 3
28 17 34 32 9 27 9 27 11 -8 1 -19 1 -74 0 -122 -1 -51 2 -88 8 -88 5 0 12 66
15 153 4 83 9 180 13 215 5 56 4 62 -13 61 -10 0 -72 -41 -138 -90z"/>
<path d="M1204 5348 c5 -120 4 -116 21 -94 11 14 15 16 15 5 0 -12 1 -12 9 0
6 10 5 24 -4 40 -7 14 -16 50 -20 78 -12 89 -25 70 -21 -29z m26 -53 c0 -8 -4
-15 -10 -15 -5 0 -7 7 -4 15 4 8 8 15 10 15 2 0 4 -7 4 -15z"/>
<path d="M2258 5326 c-20 -15 -23 -26 -8 -26 5 0 14 9 20 20 12 23 11 24 -12
6z"/>
<path d="M5260 5290 c0 -5 5 -10 10 -10 6 0 10 5 10 10 0 6 -4 10 -10 10 -5 0
-10 -4 -10 -10z"/>
<path d="M2196 5235 c4 -8 8 -15 10 -15 2 0 4 7 4 15 0 8 -4 15 -10 15 -5 0
-7 -7 -4 -15z"/>
<path d="M4060 5236 c0 -7 6 -18 13 -24 7 -6 14 -28 15 -49 2 -20 8 -40 13
-44 6 -3 10 -9 10 -13 -1 -3 2 -5 7 -3 4 1 6 5 5 10 -2 4 2 7 9 7 7 0 6 6 -4
18 -8 9 -22 38 -32 65 -17 45 -36 63 -36 33z"/>
<path d="M2240 5175 c0 -8 5 -15 11 -15 5 0 7 -5 4 -10 -4 -6 -2 -16 3 -23 5
-7 13 -27 17 -45 7 -33 39 -51 67 -37 7 3 5 0 -4 -8 -22 -17 -24 -54 -3 -54 8
0 15 5 15 11 1 6 9 1 20 -12 14 -17 26 -22 42 -17 15 4 18 3 10 -3 -10 -6 -8
-13 8 -27 11 -10 20 -26 20 -37 0 -10 7 -18 15 -18 8 0 15 -4 15 -10 0 -6 5
-9 12 -8 6 2 18 -10 26 -27 8 -16 19 -31 24 -33 4 -2 8 -21 8 -42 0 -21 5 -42
12 -46 7 -5 8 -3 4 5 -6 9 1 12 24 9 34 -3 45 -15 54 -58 3 -14 22 -36 41 -50
19 -14 37 -33 40 -42 4 -10 12 -18 18 -18 17 0 39 -73 25 -81 -7 -4 -3 -12 11
-20 11 -8 21 -21 22 -29 0 -10 2 -11 6 -2 9 23 22 12 28 -25 3 -21 10 -46 16
-56 5 -10 7 -22 4 -27 -11 -18 13 -55 38 -58 26 -2 26 -2 11 36 -8 20 -23 55
-33 77 -31 65 -39 86 -67 164 -22 63 -39 90 -89 145 -6 6 -40 43 -75 81 -36
39 -90 100 -120 135 -58 67 -152 174 -179 201 -9 9 -29 33 -45 53 -31 37 -56
47 -56 21z m460 -525 c0 -5 -4 -10 -10 -10 -5 0 -10 5 -10 10 0 6 5 10 10 10
6 0 10 -4 10 -10z"/>
<path d="M1245 5142 c-11 -9 -19 -16 -17 -15 2 0 17 -3 33 -7 27 -8 30 -7 27
12 -4 28 -18 31 -43 10z"/>
<path d="M4057 5146 c-6 -15 1 -26 15 -26 11 0 10 27 -1 34 -5 3 -11 0 -14 -8z"/>
<path d="M7293 5080 c0 -25 2 -35 4 -22 2 12 2 32 0 45 -2 12 -4 2 -4 -23z"/>
<path d="M7343 5080 c0 -25 2 -35 4 -22 2 12 2 32 0 45 -2 12 -4 2 -4 -23z"/>
<path d="M1290 5046 c0 -9 5 -16 10 -16 6 0 10 4 10 9 0 6 -4 13 -10 16 -5 3
-10 -1 -10 -9z"/>
<path d="M4145 5050 c-3 -5 -1 -10 5 -10 7 0 10 -14 9 -34 -4 -40 7 -58 22
-36 8 13 10 13 18 0 6 -8 13 -12 16 -9 7 8 -15 59 -26 59 -4 0 -11 9 -14 20
-7 22 -20 26 -30 10z"/>
<path d="M1820 5026 c0 -8 5 -18 10 -21 6 -3 10 3 10 14 0 12 -4 21 -10 21 -5
0 -10 -6 -10 -14z"/>
<path d="M1293 5004 c-19 -20 -16 -33 7 -31 12 1 20 8 20 19 0 23 -12 29 -27
12z"/>
<path d="M1321 4944 c0 -11 3 -14 6 -6 3 7 2 16 -1 19 -3 4 -6 -2 -5 -13z"/>
<path d="M4228 4955 c-6 -7 6 -48 33 -110 9 -22 13 -41 8 -43 -5 -2 1 -17 14
-33 18 -26 19 -31 7 -39 -12 -8 -11 -10 7 -10 27 0 40 35 21 58 -8 9 -23 36
-34 59 -10 24 -22 43 -26 43 -5 0 -8 10 -9 23 -1 29 -13 60 -21 52z"/>
<path d="M7333 4920 c0 -25 2 -35 4 -22 2 12 2 32 0 45 -2 12 -4 2 -4 -23z"/>
<path d="M6130 4926 c0 -9 5 -16 10 -16 6 0 10 4 10 9 0 6 -4 13 -10 16 -5 3
-10 -1 -10 -9z"/>
<path d="M1333 4867 c0 -32 4 -60 8 -63 8 -5 10 8 12 59 0 6 -4 23 -10 37 -9
21 -10 16 -10 -33z"/>
<path d="M1364 4740 c0 -47 2 -77 4 -67 2 9 10 17 18 17 18 0 18 30 0 56 -8
11 -16 33 -18 49 -3 17 -4 -8 -4 -55z"/>
<path d="M7290 4720 c0 -47 4 -80 10 -80 6 0 10 33 10 80 0 47 -4 80 -10 80
-6 0 -10 -33 -10 -80z"/>
<path d="M7330 4600 c0 -127 4 -200 10 -200 6 0 10 73 10 200 0 127 -4 200
-10 200 -6 0 -10 -73 -10 -200z"/>
<path d="M6027 4763 c-11 -10 -8 -43 3 -43 6 0 10 11 10 25 0 26 -2 29 -13 18z"/>
<path d="M4240 4739 c0 -5 5 -7 10 -4 6 3 10 8 10 11 0 2 -4 4 -10 4 -5 0 -10
-5 -10 -11z"/>
<path d="M4326 4724 c-9 -24 -7 -46 4 -39 6 3 10 1 10 -4 0 -6 -7 -11 -15 -11
-24 0 -17 -29 9 -42 14 -6 26 -20 28 -32 2 -13 10 -20 21 -20 13 1 17 -6 18
-30 0 -17 4 -49 9 -71 6 -29 7 -17 3 40 -4 52 -11 83 -19 88 -8 4 -17 26 -20
47 -4 22 -10 40 -15 40 -5 0 -9 9 -9 19 0 26 -16 35 -24 15z"/>
<path d="M5972 4660 c-1 -44 1 -50 9 -32 5 15 6 36 0 55 -8 29 -9 27 -9 -23z"/>
<path d="M1396 4663 c-4 -13 -2 -32 4 -44 15 -28 5 -69 -18 -69 -14 0 -15 2
-2 10 8 5 11 12 7 17 -14 13 -23 -14 -19 -57 3 -31 8 -40 23 -40 15 0 19 -7
19 -40 0 -28 4 -40 14 -40 8 0 16 -7 18 -17 2 -12 6 -10 17 10 8 15 11 33 6
44 -7 17 -8 17 -16 -2 -7 -14 -8 -7 -5 25 6 58 -36 237 -48 203z"/>
<path d="M1350 4640 c8 -5 20 -10 25 -10 6 0 3 5 -5 10 -8 5 -19 10 -25 10 -5
0 -3 -5 5 -10z"/>
<path d="M5940 4551 c0 -20 13 -41 21 -35 15 9 10 44 -6 44 -8 0 -15 -4 -15
-9z"/>
<path d="M4365 4500 c-3 -5 1 -10 10 -10 9 0 13 5 10 10 -3 6 -8 10 -10 10 -2
0 -7 -4 -10 -10z"/>
<path d="M5921 4464 c0 -11 3 -14 6 -6 3 7 2 16 -1 19 -3 4 -6 -2 -5 -13z"/>
<path d="M4406 4315 c2 -44 4 -86 4 -92 0 -7 4 -13 9 -13 10 0 6 66 -8 140 -7
37 -8 30 -5 -35z"/>
<path d="M5934 4354 c-4 -14 -2 -30 5 -37 8 -8 11 -1 11 26 0 43 -7 48 -16 11z"/>
<path d="M1470 4356 c0 -9 5 -16 10 -16 6 0 10 4 10 9 0 6 -4 13 -10 16 -5 3
-10 -1 -10 -9z"/>
<path d="M1441 4334 c0 -11 3 -14 6 -6 3 7 2 16 -1 19 -3 4 -6 -2 -5 -13z"/>
<path d="M4441 4334 c0 -11 3 -14 6 -6 3 7 2 16 -1 19 -3 4 -6 -2 -5 -13z"/>
<path d="M2800 4325 c0 -9 6 -12 15 -9 8 4 12 10 9 15 -8 14 -24 10 -24 -6z"/>
<path d="M1481 4298 c0 -7 6 -40 13 -73 10 -44 16 -55 21 -42 9 22 -12 127
-26 127 -5 0 -9 -6 -8 -12z"/>
<path d="M5280 4300 c0 -6 7 -10 15 -10 8 0 15 2 15 4 0 2 -7 6 -15 10 -8 3
-15 1 -15 -4z"/>
<path d="M5345 4270 c-3 -5 -1 -10 4 -10 6 0 11 5 11 10 0 6 -2 10 -4 10 -3 0
-8 -4 -11 -10z"/>
<path d="M4440 4233 c0 -15 -2 -37 -4 -48 -2 -11 -1 -14 1 -7 3 6 9 12 14 12
12 0 12 57 -1 65 -6 4 -10 -6 -10 -22z"/>
<path d="M2925 4188 c4 -31 15 -60 26 -71 11 -10 19 -25 19 -35 0 -9 7 -26 15
-36 19 -25 19 -46 1 -46 -15 0 -26 21 -26 50 0 17 -17 37 -24 29 -2 -2 -7 -19
-11 -37 -5 -26 -3 -33 12 -39 10 -3 20 -9 23 -12 3 -4 21 -19 40 -35 29 -24
34 -34 32 -65 -4 -44 22 -85 38 -61 7 11 10 0 11 -40 1 -30 5 -136 9 -235 l7
-180 -1 235 c-1 238 -7 280 -43 318 -7 7 -13 27 -13 43 0 16 -4 29 -8 29 -5 0
-16 19 -26 43 -10 23 -26 60 -36 82 -9 22 -23 57 -29 78 -18 52 -24 46 -16
-15z"/>
<path d="M5148 4233 c12 -2 30 -2 40 0 9 3 -1 5 -23 4 -22 0 -30 -2 -17 -4z"/>
<path d="M5575 4221 c46 -25 78 -27 95 -6 7 8 17 12 22 9 6 -4 5 -10 -3 -15
-12 -8 -11 -11 1 -19 8 -5 24 -10 34 -10 11 0 33 -4 50 -9 98 -29 148 -42 152
-38 12 12 16 77 5 77 -6 0 -14 -7 -17 -15 -6 -15 -45 -21 -57 -8 -12 12 -70
13 -83 2 -11 -9 -14 -8 -14 5 0 10 9 16 23 16 20 1 20 2 4 11 -9 6 -70 13
-135 15 l-117 6 40 -21z m342 -67 c-3 -3 -12 -4 -19 -1 -8 3 -5 6 6 6 11 1 17
-2 13 -5z"/>
<path d="M7283 4200 c0 -25 2 -35 4 -22 2 12 2 32 0 45 -2 12 -4 2 -4 -23z"/>
<path d="M7313 4200 c0 -25 2 -35 4 -22 2 12 2 32 0 45 -2 12 -4 2 -4 -23z"/>
<path d="M7343 4200 c0 -25 2 -35 4 -22 2 12 2 32 0 45 -2 12 -4 2 -4 -23z"/>
<path d="M5040 4209 c0 -5 5 -7 10 -4 6 3 10 8 10 11 0 2 -4 4 -10 4 -5 0 -10
-5 -10 -11z"/>
<path d="M2890 4175 c0 -8 5 -15 10 -15 6 0 10 7 10 15 0 8 -4 15 -10 15 -5 0
-10 -7 -10 -15z"/>
<path d="M1443 4160 c1 -11 5 -20 9 -20 11 0 10 28 -1 35 -6 3 -9 -4 -8 -15z"/>
<path d="M1527 4140 c3 -11 7 -20 9 -20 2 0 4 9 4 20 0 11 -4 20 -9 20 -5 0
-7 -9 -4 -20z"/>
<path d="M4467 4087 c-8 -72 -5 -99 8 -85 3 3 5 41 3 84 l-3 79 -8 -78z"/>
<path d="M1531 4039 c-11 -65 -8 -84 14 -75 16 6 25 -15 25 -59 0 -19 5 -37
10 -40 14 -9 12 -25 -2 -22 -9 1 -14 -13 -16 -40 -3 -40 -1 -43 22 -43 22 0
31 -9 25 -22 -1 -2 6 -20 15 -42 9 -21 16 -48 16 -60 0 -12 5 -27 11 -33 9 -9
7 -11 -8 -7 -19 5 -20 1 -16 -78 3 -46 6 -89 8 -95 6 -18 25 -16 25 2 0 8 5
15 10 15 6 0 10 5 10 11 0 5 -6 7 -12 3 -9 -5 -9 -2 1 9 9 11 10 17 2 17 -6 0
-11 7 -11 16 0 9 5 14 12 12 17 -6 22 -76 8 -93 -17 -21 -26 -135 -11 -135 8
0 10 11 5 36 -4 25 -3 35 4 31 5 -4 13 0 16 9 9 23 26 7 26 -24 0 -15 5 -34
10 -42 20 -30 28 9 13 59 -28 87 -55 196 -58 228 -2 17 -6 36 -9 41 -9 16 -88
322 -93 365 -5 37 -17 48 -27 25 -3 -7 -5 8 -4 34 3 70 -8 68 -21 -3z m76
-261 c-3 -7 -5 -2 -5 12 0 14 2 19 5 13 2 -7 2 -19 0 -25z"/>
<path d="M4491 3943 c-1 -6 -4 -20 -7 -30 -5 -17 -5 -17 6 0 6 10 9 23 6 30
-3 9 -5 9 -5 0z"/>
<path d="M4493 3854 c-12 -25 -2 -86 15 -92 10 -3 12 8 11 42 -3 57 -13 76
-26 50z"/>
<path d="M7273 3800 c0 -25 2 -35 4 -22 2 12 2 32 0 45 -2 12 -4 2 -4 -23z"/>
<path d="M7308 3585 c2 -143 0 -289 -5 -325 -4 -36 -6 -83 -3 -105 5 -34 7
-28 14 43 4 45 12 82 17 82 5 0 8 127 7 283 -1 155 -3 263 -5 240 -2 -24 -8
-43 -13 -43 -5 0 -10 19 -12 43 -2 23 -1 -75 0 -218z"/>
<path d="M5290 3700 c0 -16 7 -20 35 -20 28 0 35 4 35 20 0 16 -7 20 -35 20
-28 0 -35 -4 -35 -20z"/>
<path d="M4800 3600 c0 -17 7 -20 39 -20 26 0 41 5 45 16 9 24 9 24 -39 24
-38 0 -45 -3 -45 -20z"/>
<path d="M7243 3440 c0 -41 2 -58 4 -37 2 20 2 54 0 75 -2 20 -4 3 -4 -38z"/>
<path d="M3050 3380 c0 -11 5 -20 10 -20 6 0 10 9 10 20 0 11 -4 20 -10 20 -5
0 -10 -9 -10 -20z"/>
<path d="M1600 3324 c0 -18 5 -36 12 -40 7 -4 8 -3 4 4 -4 7 -2 12 3 12 6 0
11 9 11 21 0 11 5 17 10 14 6 -3 10 -2 10 3 0 5 -11 12 -25 14 -23 5 -25 2
-25 -28z"/>
<path d="M3078 3239 c-1 -68 -1 -178 1 -243 3 -92 1 -117 -9 -111 -8 5 -10 25
-6 69 3 33 2 86 -3 116 l-9 55 -1 -82 c-1 -67 -4 -83 -16 -83 -11 0 -15 -12
-15 -50 0 -27 -4 -50 -10 -50 -14 0 -12 -27 3 -33 10 -4 10 -6 0 -6 -21 -2
-14 -21 7 -21 14 0 20 7 21 23 1 21 1 21 8 -3 4 -14 15 -26 27 -28 19 -3 19 3
17 279 -2 288 -11 391 -15 168z"/>
<path d="M3050 3274 c0 -47 4 -73 10 -69 6 3 10 37 10 76 0 39 -4 69 -10 69
-6 0 -10 -32 -10 -76z"/>
<path d="M1690 3295 c0 -8 4 -15 10 -15 5 0 7 7 4 15 -4 8 -8 15 -10 15 -2 0
-4 -7 -4 -15z"/>
<path d="M7260 3245 c0 -16 -2 -17 -9 -6 -21 33 -29 -125 -14 -279 l8 -85 9
163 c4 89 12 162 17 162 12 0 11 31 -1 50 -8 12 -10 12 -10 -5z"/>
<path d="M1762 3225 c0 -16 2 -22 5 -12 2 9 2 23 0 30 -3 6 -5 -1 -5 -18z"/>
<path d="M7321 3133 c1 -38 5 -111 9 -163 6 -90 7 -87 8 68 1 102 -2 162 -8
162 -6 0 -10 -28 -9 -67z"/>
<path d="M7920 2890 c0 -5 5 -10 11 -10 5 0 7 5 4 10 -3 6 -8 10 -11 10 -2 0
-4 -4 -4 -10z"/>
<path d="M6573 2883 c9 -2 25 -2 35 0 9 3 1 5 -18 5 -19 0 -27 -2 -17 -5z"/>
<path d="M5540 2840 c0 -22 5 -40 10 -40 6 0 10 18 10 40 0 22 -4 40 -10 40
-5 0 -10 -18 -10 -40z"/>
<path d="M6240 2840 c0 -22 5 -40 10 -40 6 0 10 18 10 40 0 22 -4 40 -10 40
-5 0 -10 -18 -10 -40z"/>
<path d="M5484 2823 c-17 -17 -17 -18 9 -21 27 -3 32 -14 28 -59 -2 -24 13
-31 25 -12 4 7 22 9 50 4 56 -8 89 7 74 36 -16 28 -4 39 41 39 25 0 39 5 39
13 0 7 -11 13 -24 13 -14 0 -22 -4 -20 -8 8 -12 -10 -10 -23 3 -18 18 -77 -3
-81 -29 -6 -39 -82 -19 -82 22 0 21 -14 20 -36 -1z m161 -64 c-8 -12 -35 -12
-35 0 0 11 22 20 33 14 4 -2 5 -9 2 -14z"/>
<path d="M2944 2812 c4 -6 -3 -12 -16 -14 -14 -2 -18 -6 -12 -10 6 -4 19 -1
29 6 14 10 15 15 5 21 -8 5 -11 4 -6 -3z"/>
<path d="M5240 2805 c0 -8 7 -15 15 -15 8 0 15 7 15 15 0 8 -7 15 -15 15 -8 0
-15 -7 -15 -15z"/>
<path d="M6508 2813 c7 -3 16 -2 19 1 4 3 -2 6 -13 5 -11 0 -14 -3 -6 -6z"/>
<path d="M6505 2790 c-3 -5 -1 -10 4 -10 6 0 11 5 11 10 0 6 -2 10 -4 10 -3 0
-8 -4 -11 -10z"/>
<path d="M6538 2793 c7 -3 16 -2 19 1 4 3 -2 6 -13 5 -11 0 -14 -3 -6 -6z"/>
<path d="M5530 1430 c0 -5 4 -10 9 -10 6 0 13 5 16 10 3 6 -1 10 -9 10 -9 0
-16 -4 -16 -10z"/>
</g>
</svg>
